<svg xmlns="http://www.w3.org/2000/svg" width="1024px" height="1024px" viewBox="0 0 10 10">
<linearGradient id="gradient" x1="0%" y1="0%" x2="0%" y2="100%">
  <stop offset="0%" stop-color="#75C1C4" />
  <stop offset="25%" stop-color="#5da8cc" />
  <stop offset="100%" stop-color="#3C7699" />
</linearGradient>
<path d="M 2.5 0 L 6 0 L 5 1 L 3 1 L 1 3 L 1 7 L 0 6 L 0 2.5 L 2.5 0 M 0 7 L 0 10 L 1 10 L 1 8 L 0 7 M 7 0 L 10 0 L 7 3 L 4 3 L 3 4 L 3 8 L 2 9 L 2 3.5 L 3.5 2 L 6.5 2 L 7.5 1 L 6 1 L 7 0 M 2 10 L 3 9 L 7.5 9 L 9 7.5 L 9 6 L 7 6 L 8 5 L 10 5 L 10 8 L 8 10 L 2 10 M 10 1 L 10 2 L 6 6 L 5 6 L 10 1 Z" fill="url(#gradient)"/>
</svg>